# xmcd
#
# Track frame offsets: 
#        150
#        27833
#        56242
#        84471
#        97088
#        110288
#        123240
#        139838
#
# Disc length: 2051 seconds
#
# Revision: 0
# Processed by: cddbd v1.5.2PL0 Copyright (c) Steve Scherf et al.
# Submitted via: ExactAudioCopy v0.99pb5
#
DISCID=68080108
DTITLE=Gloria Gaynor - Never Can Say Goodbye
DYEAR=1975
DGENRE=Funk/Soul
TTITLE0=Honey Bee
TTITLE1=Never Can Say Goodbye
TTITLE2=Reach Out, I'll Be There
TTITLE3=All I Need Is Your Sweet Lovin'
TTITLE4=Searchin'
TTITLE5=We Belong Together
TTITLE6=False Alarm
TTITLE7=Real Good People
EXTD=
EXTT0=
EXTT1=
EXTT2=
EXTT3=
EXTT4=
EXTT5=
EXTT6=
EXTT7=
PLAYORDER=
